<svg id="Layer_1" data-name="Layer 1" xmlns="http://www.w3.org/2000/svg" xmlns:xlink="http://www.w3.org/1999/xlink" viewBox="0 0 100 100"><defs><style>.cls-1{stroke:#50d800;fill:url(#radial-gradient);}.cls-1,.cls-2,.cls-3,.cls-4{stroke-miterlimit:10;}.cls-2,.cls-3{fill:#ff5e22;}.cls-2,.cls-3,.cls-4{stroke:#ff3000;}.cls-2{stroke-width:2px;}.cls-3{stroke-width:2px;}.cls-4{fill:none;stroke-width:0.75px;}</style><radialGradient id="radial-gradient" cx="49.42" cy="45" r="42.79" gradientUnits="userSpaceOnUse"><stop offset="0" stop-color="#00beff"/><stop offset="0.16" stop-color="#008dd1"/><stop offset="0.29" stop-color="#0061a7"/><stop offset="0.32" stop-color="#095fa9"/><stop offset="0.37" stop-color="#205aaf"/><stop offset="0.43" stop-color="#4752b9"/><stop offset="0.49" stop-color="#7d46c7"/><stop offset="0.57" stop-color="#c038d8"/><stop offset="0.63" stop-color="#ff2ae8"/><stop offset="0.66" stop-color="#fa2fe2"/><stop offset="0.7" stop-color="#ea3bd2"/><stop offset="0.75" stop-color="#d150b7"/><stop offset="0.81" stop-color="#ae6e91"/><stop offset="0.86" stop-color="#819461"/><stop offset="0.92" stop-color="#4bc127"/><stop offset="0.95" stop-color="#27e000"/></radialGradient></defs><title>logo</title><path class="cls-1" d="M52.5,2.5a26.49,26.49,0,0,1,4,16,23.64,23.64,0,0,1-1,5l8-21-6,28a56.57,56.57,0,0,1,25-25c-2.9,4.46-6.21,9.16-10,14a194.37,194.37,0,0,1-14,16c4.77-5.5,10.09-11.21,16-17,4.41-4.33,8.76-8.32,13-12l-3,12c-.33.33-4.33,3-11,7,4.18-2.51,12.3-6.85,13-7l6,2-33,25h23l-21,3c14.84.88,21,1.53,21,2s-6.18.82-21,1l22,3h-24l33,17-5,2-8-3,6,3-2,3-8-2,6,11a62.95,62.95,0,0,1-23-23l16,25-19-24,7,22-8-10-2,10q-1-17.5-2-35l-3,36-2-16-9,16a110.31,110.31,0,0,1,6-22c1-2.46,2-4.8,3-7l-16,24,1-5-6,10-2-8,7-4-16,9,18-18-12,11-9-2,7-10,8-4-8,3-8-4,34-9Q6.3,47.43,6.34,46.69t36.16.81L9.84,37.19l16.5-1.5L9.5,21.5l16,7-12-21,13,12,1-16L44.34,33.69Q34.83,2.73,35.5,2.5c.6-.2,11,29.81,11.34,29.69A48.8,48.8,0,0,1,44.5,22.5a36.44,36.44,0,0,1,4-20q1,24,2,48Q51.51,26.5,52.5,2.5Z"/><path class="cls-2" d="M41,43c0-13,6.79-37.13,8-42-4.33.33-9.67,1.17-14,1.5-2,6-2.56,10.75-5,20.5-2,8-4,17-4.66,21.69q-.11-6.33,0-13C25.53,21.61,26.12,12,27,3L12,5a126.47,126.47,0,0,0,0,81l12,1a140.15,140.15,0,0,1-4.66-22.31c-.57-4.6-.87-8.95-1-13C19.16,54.24,26.42,80.18,28,82c.9-9.77,2-17.9,3-24,1.18-7.4,1.68-9,2-9,.73,0,.31,8.51,1,20,.48,8,1.33,14.56,2,19,2.15.15,10.83.83,13,1C44,75,41,52,41,43Z"/><path class="cls-3" d="M51,1,89,5a52,52,0,0,1,2,7,54.43,54.43,0,0,1,1,7c-4-.77-8.38-1.46-13-2-4.21-.49-8.22-.81-12-1,.78,4.35,1.47,9,2,14,.56,5.31.87,10.33,1,15H83V55H71q-.37,4.83-1,10c-.56,4.56-1.24,8.9-2,13l25-5q-2.5,6.5-5,13L52,89a117.8,117.8,0,0,0,8-39A118.34,118.34,0,0,0,51,1Z"/><path class="cls-4" d="M12.64,5.74a3.53,3.53,0,0,0,3.53,3.41,3.53,3.53,0,0,0,3.25-3.67A3.67,3.67,0,0,0,26,8.32L25.9,15a5.52,5.52,0,0,1-3.78-4.71,3.7,3.7,0,0,1-3.69,3.64A3.7,3.7,0,0,1,15,10a2.81,2.81,0,0,1-5.12,1.88L7.83,19.59a5.08,5.08,0,0,0,4.79-6.09L12,19.23a4.72,4.72,0,0,0,6-4.5,3.67,3.67,0,0,0,3.27,4.43A3.69,3.69,0,0,0,24.93,15l.39,10.94a7.67,7.67,0,0,1-3.3-5.8,4.19,4.19,0,0,1-3.89,5,4.19,4.19,0,0,1-3.87-5A4.89,4.89,0,0,1,12.46,25a4.89,4.89,0,0,1-5.25.27L5.66,33.46A5.7,5.7,0,0,0,10,26.68a4.41,4.41,0,0,0,4,5.88,4.41,4.41,0,0,0,3.55-6.15,4.39,4.39,0,0,0,2.21,5.36,4.38,4.38,0,0,0,5.47-1.89l.18,7.88a5.45,5.45,0,0,1-4.34-5.15,3.87,3.87,0,0,1-3.3,4.49,3.88,3.88,0,0,1-4-3.85,3.36,3.36,0,0,1-2.91,3.82,3.36,3.36,0,0,1-3.48-3.31L5.53,42.7a7.43,7.43,0,0,0,4.54-5.31,4.05,4.05,0,0,0,3.53,5,4,4,0,0,0,3.9-4.77,3.9,3.9,0,0,0,3.15,4.12,3.9,3.9,0,0,0,4.27-3c.73,2.11,1.07,5.15-1,5.93a2.29,2.29,0,0,1-2.83-2.65A3.67,3.67,0,0,1,17.8,46.2a3.67,3.67,0,0,1-3.74-3.66,3.74,3.74,0,0,1-3.65,3.81A3.75,3.75,0,0,1,6.9,42.41a14.51,14.51,0,0,0-1.3,10.3,7,7,0,0,0,5-6.33A3.82,3.82,0,0,0,13,50.72a3.83,3.83,0,0,0,4.55-2l1,8.35A6.15,6.15,0,0,1,13.8,51.3a3.53,3.53,0,0,1-3,4.12,3.53,3.53,0,0,1-3.7-3.49L6,61.72a5.91,5.91,0,0,0,6-6.08,4,4,0,0,0,1.59,4.63,4,4,0,0,0,4.85-.72l1.37,8.39a8.51,8.51,0,0,1-5.12-6.36,3.72,3.72,0,0,1-3,5.25A3.72,3.72,0,0,1,8.4,61.76a12.87,12.87,0,0,0,0,10.54,3.71,3.71,0,0,0,3.63-4.68,3.3,3.3,0,0,0,3.22,3.45,3.3,3.3,0,0,0,3.07-3.58L21,74.57a4.29,4.29,0,0,1-5.05-3.2,2.87,2.87,0,0,1-2.36,3.38,2.87,2.87,0,0,1-3-2.8A4.25,4.25,0,0,1,8.9,76.87l1.51,3.91a4.29,4.29,0,0,0,3.91-5.84,3.39,3.39,0,0,0,2.32,4.26,3.38,3.38,0,0,0,3.95-2.8L22.81,83a3.64,3.64,0,0,1-5.12-3.23A4.18,4.18,0,0,1,14.43,83a4.18,4.18,0,0,1-4.21-1.87,10.19,10.19,0,0,0,13.12,5.12,192.93,192.93,0,0,1-5.59-39.36c-.86,1.74,1.42,3.77,3.28,3.24s2.9-2.61,3-4.55a4,4,0,0,0,7.84.17,4.9,4.9,0,0,0,9-.19l.87,7.19a4.81,4.81,0,0,1-5.44-4.22,3.8,3.8,0,0,1-7.57.67,5,5,0,0,1-9,1.18,6.56,6.56,0,0,0-.14,6.37,3.29,3.29,0,0,0,4.08-3.49,4,4,0,0,0,7.46,1.06l-.86,6.5a4.5,4.5,0,0,1-3.34-4.15,3.41,3.41,0,0,1-5.81,2.94L22,65a3.3,3.3,0,0,0,1.7-4c.19,2.66,4,4.21,6,2.47l.15,5a3,3,0,0,1-2.95-3.69A3.1,3.1,0,0,1,24,68.55C23,71.05,25.86,74,28.41,73.2l3.51-20.5a4.12,4.12,0,0,0,8-.08,7.43,7.43,0,0,1,2,6.5,4.26,4.26,0,0,1-4.58-3.37,3.33,3.33,0,0,1-3.76,3.48,3.74,3.74,0,0,0,2.74,5.47,3.73,3.73,0,0,0,3.43-5.06l4.46,9.28a4.41,4.41,0,0,1-6.94-4c.77,2.2-2.2,3.87-2.84,6.1a3.41,3.41,0,0,0,3.18,4.16,3.42,3.42,0,0,0,3-4.26,11.49,11.49,0,0,1,4.13,3.62c.92,1.6.88,3.93-.6,5a3.43,3.43,0,0,1-4.2-.38A4.92,4.92,0,0,1,38.65,75a3.85,3.85,0,0,1-3.38,4.81,4,4,0,0,0,3.19,5.43,4,4,0,0,0,4-4.9,4.61,4.61,0,0,0,4.7,4.91A194,194,0,0,1,41,42.41a2.24,2.24,0,1,1-4.28-1.27A4.05,4.05,0,0,1,32.08,45a4.05,4.05,0,0,1-2.83-5.31,2.94,2.94,0,0,1-3.19,1.9l1.6-7.12a3.41,3.41,0,0,0,3,4.71,3.41,3.41,0,0,0,2.59-5c-1.1,2.23,1.3,5,3.79,4.89s4.46-2.35,5.12-4.75.31-5,0-7.41a3.28,3.28,0,0,1-6.3,1.79c1,2.28-1.5,5.18-3.91,4.56-1.87-.49-3-2.54-3-4.48a13.32,13.32,0,0,1,1.55-5.53A4.34,4.34,0,0,0,34.75,28a4.35,4.35,0,0,0,3.89-5c-.08,1.46,1.65,2.57,3.07,2.21A4,4,0,0,0,44.4,22a11.94,11.94,0,0,0-.2-4.37,4.55,4.55,0,0,1-4.58,4.61,4.55,4.55,0,0,1-4.08-5.06c.52,1.22-1,2.58-2.28,2.25a3.09,3.09,0,0,1-2-3.09,9,9,0,0,1,1.21-3.75,4.25,4.25,0,1,0,8.47-.76L45,15.2,47.13,6a5.22,5.22,0,0,1-10,1.69L33.42,9.05l.71-4.53a4.73,4.73,0,0,0,8.63-1.43c-.2,1.44,2.09,1.82,3.3,1s2.19-2.21,3.64-2.28C52,1.7,52.9,4.6,54.42,6.28A5.46,5.46,0,0,0,60,7.8a5.46,5.46,0,0,0,3.69-4.44,6.26,6.26,0,0,0,12,1,6.69,6.69,0,0,0,5.5,4.5,6.71,6.71,0,0,0,6.36-3.16l3.75,6.68A6.63,6.63,0,0,1,82.4,9.11a6.36,6.36,0,0,1-11.66-.64A6.59,6.59,0,0,1,59.17,8,4.6,4.6,0,0,1,55,12,4.64,4.64,0,1,0,64,11.86a7.09,7.09,0,0,0,12.67.8,6.24,6.24,0,0,0,11.67,1.15l3.07,4.6L67,16.06l.88,5.79a9.76,9.76,0,0,1-7.44-4.28l-2.33,9.31a4.78,4.78,0,0,0,6.77-5L69.79,31c-3,1.77-7.47-.44-7.88-3.89,1,2.34-2.3,4.4-2.55,7a3,3,0,1,0,5.42-1.56c.09,3.28,5.51,4.64,5.21,7.91-.19,2.15-3,3.16-5,2.34S61.72,40,60.63,38.15l-.08,9.33a3.45,3.45,0,0,0,3.52-4.3c1.69,2.9,5.69,3.35,9,2.89s6.79-1.48,9.94-.33a3.46,3.46,0,1,1-6.24.61,4.9,4.9,0,0,1-9,.3A6.34,6.34,0,0,1,60.33,50l-.47,7.25a4.81,4.81,0,0,0,2.83-6.66,4.46,4.46,0,1,0,8.76-.52,4.75,4.75,0,0,0,9.31,1.17L81.53,55c-2.42-.59-5-1.19-7.37-.55S69.58,57.36,70,59.81a4.42,4.42,0,0,1-3.52-3.93,3.32,3.32,0,0,1-6.16,1.9l-1.74,7.91a4.79,4.79,0,0,0,4.21-6,5.61,5.61,0,0,0,6.67,5.67,4.86,4.86,0,0,1-1.07,5.37l-2.82-5.05a3.3,3.3,0,0,1-6.56.76l-2.65,9.07a5.12,5.12,0,0,0,4.34-5.7,4.4,4.4,0,0,0,7.5,4l-.11,4.15-2.84-2a4.78,4.78,0,0,1-8.92,1.51l-2.42,6.84c2.6,1.32,6.2-1.19,5.86-4.09A5.23,5.23,0,0,0,70,78.82a4.29,4.29,0,0,0,8.41-1.64,4.92,4.92,0,0,0,9.77.07,1.73,1.73,0,0,0,1.37,2.32,3.16,3.16,0,1,1-5.86,2.06,4.84,4.84,0,0,1-9.41.81,4.7,4.7,0,0,1-8.71,1A5.67,5.67,0,0,1,55.47,85l-2,2.64"/></svg>